<svg id="vector" xmlns="http://www.w3.org/2000/svg" width="512" height="512" viewBox="0 0 512 512"><path fill="#000000" d="M384.3,39.04L385.88,177.39L265.21,235.32L263.72,104.69L384.3,39.04Z" fill-rule="evenodd" id="path_0"/><path fill="#000000" d="M505.27,257.05L385.81,325.37L266.29,256.94L385.75,194.19L505.27,257.05Z" fill-rule="evenodd" id="path_1"/><path fill="#000000" d="M245.04,257.05L125.58,325.37L6.06,256.94L125.52,194.19L245.04,257.05Z" fill-rule="evenodd" id="path_2"/><path fill="#000000" d="M124.24,38.48L248.23,99.88L245.06,233.7L127.99,175.72L124.24,38.48Z" fill-rule="evenodd" id="path_3"/><path fill="#000000" d="M387.68,473.52L263.69,412.12L266.86,278.3L383.93,336.28L387.68,473.52Z" fill-rule="evenodd" id="path_4"/><path fill="#000000" d="M128.52,474.77L126.95,336.42L247.62,278.49L249.11,409.12L128.52,474.77Z" fill-rule="evenodd" id="path_5"/></svg>