<svg width="13" height="12" viewBox="0 0 13 12" fill="none" xmlns="http://www.w3.org/2000/svg">
<path d="M0.916992 6.75195H4.91699C5.03256 6.75202 5.1445 6.78642 5.23926 6.84961L5.32812 6.92188C5.43711 7.03086 5.49796 7.17889 5.49805 7.33301L5.49805 11.333C5.49805 11.4488 5.46374 11.5614 5.40039 11.6562L5.32812 11.7441C5.21914 11.8531 5.07111 11.915 4.91699 11.915H0.916992C0.801275 11.915 0.688614 11.8807 0.59375 11.8174L0.505859 11.7441C0.396796 11.6351 0.334961 11.4872 0.334961 11.333L0.334961 7.33301C0.335026 7.2175 0.369489 7.10547 0.432617 7.01074L0.505859 6.92188C0.614892 6.81302 0.762907 6.75195 0.916992 6.75195ZM9.58301 6.75195C11.0066 6.75195 12.1649 7.90949 12.165 9.33301C12.165 10.7567 11.0067 11.915 9.58301 11.915C8.15949 11.9149 7.00195 10.7566 7.00195 9.33301C7.00213 7.9096 8.1596 6.75213 9.58301 6.75195ZM1.49805 10.752H4.33496L4.33496 7.91504H1.49805L1.49805 10.752ZM9.58301 7.91504C8.80093 7.91522 8.16522 8.55093 8.16504 9.33301C8.16504 10.1152 8.80082 10.7518 9.58301 10.752C10.3653 10.752 11.002 10.1153 11.002 9.33301C11.0018 8.55082 10.3652 7.91504 9.58301 7.91504ZM0.916992 0.0849609L4.91699 0.0849609C5.0325 0.0850255 5.14453 0.119489 5.23926 0.182617L5.32812 0.255859C5.43699 0.364892 5.49805 0.512906 5.49805 0.666992V4.66699C5.49796 4.82111 5.43711 4.96914 5.32812 5.07812C5.21914 5.18711 5.07111 5.24796 4.91699 5.24805H0.916992C0.801214 5.24805 0.688646 5.21374 0.59375 5.15039L0.505859 5.07812C0.396872 4.96914 0.335047 4.82111 0.334961 4.66699L0.334961 0.666992L0.34668 0.552734C0.361584 0.478176 0.390422 0.407002 0.432617 0.34375L0.505859 0.255859C0.587656 0.174063 0.690951 0.119025 0.802734 0.0966797L0.916992 0.0849609ZM7.58301 0.0849609L11.583 0.0849609C11.6987 0.0849609 11.8114 0.119334 11.9062 0.182617L11.9941 0.255859C12.1032 0.364923 12.165 0.512753 12.165 0.666992V4.66699C12.165 4.7825 12.1305 4.89453 12.0674 4.98926L11.9941 5.07813C11.8851 5.18699 11.7371 5.24805 11.583 5.24805L7.58301 5.24805C7.46744 5.24798 7.3555 5.21358 7.26074 5.15039L7.17188 5.07812C7.06289 4.96914 7.00204 4.82111 7.00195 4.66699V0.666992C7.00195 0.551214 7.03626 0.438646 7.09961 0.34375L7.17188 0.255859C7.28086 0.146872 7.42889 0.0850471 7.58301 0.0849609ZM1.49805 4.08496H4.33496V1.24805L1.49805 1.24805L1.49805 4.08496ZM8.16504 4.08496L11.002 4.08496V1.24805L8.16504 1.24805V4.08496Z" fill="#000000" stroke="#000000" stroke-width="0.170213"/>
</svg>
