<svg id="vector" xmlns="http://www.w3.org/2000/svg" width="32" height="32" viewBox="0 0 32 32"><path fill="#000000" d="M11.667,17.333C13.323,17.333 14.667,18.677 14.667,20.333V25C14.667,26.657 13.323,28 11.667,28H7C5.343,28 4,26.657 4,25V20.333C4,18.677 5.343,17.333 7,17.333H11.667ZM25,17.333C26.657,17.333 28,18.677 28,20.333V25C28,26.657 26.657,28 25,28H20.333C18.677,28 17.333,26.657 17.333,25V20.333C17.333,18.677 18.677,17.333 20.333,17.333H25ZM11.667,4C13.323,4 14.667,5.343 14.667,7V11.667C14.667,13.323 13.323,14.667 11.667,14.667H7C5.343,14.667 4,13.323 4,11.667V7C4,5.343 5.343,4 7,4H11.667ZM25,4C26.657,4 28,5.343 28,7V11.667C28,13.323 26.657,14.667 25,14.667H20.333C18.677,14.667 17.333,13.323 17.333,11.667V7C17.333,5.343 18.677,4 20.333,4H25Z" id="path_0"/></svg>