<svg width="11" height="14" viewBox="0 0 11 14" fill="none" xmlns="http://www.w3.org/2000/svg">
<path d="M10.875 12.062H0.625C0.55625 12.062 0.5 12.1183 0.5 12.187L0.5 13.1245C0.5 13.1933 0.55625 13.2495 0.625 13.2495H10.875C10.9438 13.2495 11 13.1933 11 13.1245V12.187C11 12.1183 10.9438 12.062 10.875 12.062ZM10.875 0.749512L0.625 0.749512C0.55625 0.749512 0.5 0.805762 0.5 0.874512L0.5 1.81201C0.5 1.88076 0.55625 1.93701 0.625 1.93701L10.875 1.93701C10.9438 1.93701 11 1.88076 11 1.81201V0.874512C11 0.805762 10.9438 0.749512 10.875 0.749512ZM7.29375 4.90576C7.3875 4.90576 7.44063 4.79639 7.38281 4.72295L5.80781 2.7292C5.79739 2.71571 5.78401 2.70478 5.76871 2.69727C5.7534 2.68975 5.73658 2.68585 5.71953 2.68585C5.70248 2.68585 5.68566 2.68975 5.67036 2.69727C5.65505 2.70478 5.64167 2.71571 5.63125 2.7292L4.05625 4.72295C4.04313 4.73963 4.03497 4.75967 4.03271 4.78077C4.03046 4.80188 4.03419 4.82319 4.04348 4.84227C4.05278 4.86135 4.06726 4.87743 4.08527 4.88865C4.10328 4.89988 4.12409 4.90581 4.14531 4.90576H5.1875L5.1875 9.09326H4.20625C4.1125 9.09326 4.05938 9.20264 4.11719 9.27607L5.69219 11.2683C5.7375 11.3261 5.825 11.3261 5.86875 11.2683L7.44375 9.27607C7.50156 9.20264 7.45 9.09326 7.35469 9.09326H6.3125L6.3125 4.90576H7.29375Z" fill="#000000"/>
</svg>
