<svg id="vector" xmlns="http://www.w3.org/2000/svg" width="32" height="32" viewBox="0 0 32 32"><path fill="#000000" d="M24.334,4C22.678,4 21.336,5.343 21.336,6.999V25.001C21.336,26.657 22.678,28 24.334,28C25.991,28 27.333,26.657 27.333,25.001V6.999C27.333,5.343 25.991,4 24.334,4ZM15.668,9.333C14.012,9.333 12.669,10.676 12.669,12.332V25.001C12.669,26.657 14.012,28 15.668,28C17.324,28 18.667,26.657 18.667,25.001V12.332C18.667,10.676 17.324,9.333 15.668,9.333ZM7.001,14.667C5.345,14.667 4.002,16.009 4.002,17.666V25.001C4.002,26.657 5.345,28 7.001,28C8.657,28 10,26.657 10,25.001V17.666C10,16.009 8.657,14.667 7.001,14.667ZM24.334,6C24.886,6 25.333,6.447 25.333,6.999V25.001C25.333,25.553 24.886,26 24.334,26C23.783,26 23.336,25.553 23.336,25.001V6.999C23.336,6.447 23.783,6 24.334,6ZM15.668,11.333C16.219,11.333 16.667,11.781 16.667,12.332V25.001C16.667,25.553 16.219,26 15.668,26C15.116,26 14.669,25.553 14.669,25.001V12.332C14.669,11.781 15.116,11.333 15.668,11.333ZM7.001,16.667C7.553,16.667 8,17.114 8,17.666V25.001C8,25.553 7.553,26 7.001,26C6.45,26 6.002,25.553 6.002,25.001V17.666C6.002,17.114 6.45,16.667 7.001,16.667Z" id="path_0"/></svg>