<svg id="vector" xmlns="http://www.w3.org/2000/svg" width="32" height="32" viewBox="0 0 32 32"><path fill="#000000" d="M22.902,18.395C24.393,18.395 25.601,19.603 25.601,21.094V22.196C25.601,22.885 25.386,23.556 24.986,24.115C23.131,26.712 20.101,27.998 15.996,27.998C11.89,27.998 8.862,26.711 7.011,24.114C6.613,23.554 6.398,22.885 6.398,22.198V21.094C6.398,19.603 7.607,18.395 9.098,18.395H22.902ZM15.996,3.998C19.31,3.998 21.997,6.685 21.997,9.999C21.997,13.313 19.31,16 15.996,16C12.682,16 9.995,13.313 9.995,9.999C9.995,6.685 12.682,3.998 15.996,3.998Z" id="path_0"/></svg>