<svg width="17" height="16" viewBox="0 0 17 16" fill="none" xmlns="http://www.w3.org/2000/svg">
<path d="M8.75 2.5C7.9275 2.5 7.25 3.1775 7.25 4C7.25 4.176 7.287 4.342 7.344 4.5H4.844L4.7655 4.9065L3.2655 12.4065L3.25 12.453V13.5H14.25V12.453L14.2345 12.4065L12.7345 4.9065L12.656 4.5H10.156C10.2161 4.34004 10.2479 4.17085 10.25 4C10.25 3.1775 9.5725 2.5 8.75 2.5ZM8.75 3.5C9.0315 3.5 9.25 3.719 9.25 4C9.25 4.2815 9.031 4.5 8.75 4.5C8.4685 4.5 8.25 4.281 8.25 4C8.25 3.7185 8.469 3.5 8.75 3.5ZM5.656 5.5H11.844L13.25 12.5H4.25L5.656 5.5Z" fill="#000000"/>
</svg>
