<svg id="vector" xmlns="http://www.w3.org/2000/svg" width="32" height="32" viewBox="0 0 32 32"><path fill="#000000" d="M24.332,4C22.676,4 21.333,5.343 21.333,6.999V25.001C21.333,26.657 22.676,28 24.332,28C25.988,28 27.331,26.657 27.331,25.001V6.999C27.331,5.343 25.988,4 24.332,4ZM15.665,9.333C14.009,9.333 12.667,10.676 12.667,12.332V25.001C12.667,26.657 14.009,28 15.665,28C17.322,28 18.664,26.657 18.664,25.001V12.332C18.664,10.676 17.322,9.333 15.665,9.333ZM6.999,14.667C5.343,14.667 4,16.009 4,17.666V25.001C4,26.657 5.343,28 6.999,28C8.655,28 9.998,26.657 9.998,25.001V17.666C9.998,16.009 8.655,14.667 6.999,14.667Z" id="path_0"/></svg>